
<svg version="1.1" id="Layer_1" xmlns="http://www.w3.org/2000/svg" xmlns:xlink="http://www.w3.org/1999/xlink" x="0px" y="0px"
	 width="386px" height="184px">
<g>
	<path fill="#FFFFFF" stroke="#3FA9F5" stroke-width="12" stroke-miterlimit="10" d="M380,134.25c0,23.2-21.8,43.25-45,43.25
		L43.5,178C21.09,177.73,6,158.47,6,136c0-22.64,18.36-41,41-41c11.78,0,22.4,4.97,29.88,12.92C81.64,80.7,104.41,58,133,58
		c11.22,0,21.7,3.18,30.57,8.7c9-34.91,40.67-60.7,78.399-60.7c44.74,0,80.73,36.27,80.73,81c0,2.67-0.7,5.31-0.7,7.91v0.03
		c0,0.02,0.25,0.029,0.24,0.05c0.04-0.021,0.205-0.03,0.245-0.05c4.76-1.881,10.022-2.801,15.452-2.801
		C361.138,92.14,380,111.05,380,134.25z"/>
	<path fill="#FFFFFF" d="M381.5,135.75c0,23.2-21.8,43.25-45,43.25L45,179.5c-22.41-0.27-37.5-19.53-37.5-42c0-22.64,18.36-41,41-41
		c11.78,0,22.4,4.97,29.88,12.92C83.14,82.2,105.91,59.5,134.5,59.5c11.22,0,21.7,3.18,30.57,8.7c9-34.91,40.67-60.7,78.399-60.7
		c44.74,0,80.48,36.27,80.48,81c0,2.67-0.95,5.31-0.95,7.91v0.03c0,0.02,0.5,0.029,0.49,0.05c0.04-0.021,0.33-0.03,0.37-0.05
		c4.76-1.881,10.085-2.801,15.515-2.801C362.575,93.64,381.5,112.55,381.5,135.75z"/>
	<path fill="#FFFFFF" d="M383,137.25c0,23.2-21.8,43.25-45,43.25L46.5,181C24.09,180.73,9,161.47,9,139c0-22.64,18.36-41,41-41
		c11.78,0,22.4,4.97,29.88,12.92C84.64,83.7,107.41,61,136,61c11.22,0,21.7,3.18,30.57,8.7c9-34.91,40.67-60.7,78.399-60.7
		c44.74,0,80.73,36.27,80.73,81c0,2.67-0.7,5.31-0.7,7.91v0.03c0,0.02,0.25,0.029,0.24,0.05c0.04-0.021,0.205-0.03,0.245-0.05
		c4.76-1.881,10.022-2.801,15.452-2.801C364.138,95.14,383,114.05,383,137.25z"/>
</g>
</svg>
